<?xml version="1.0" encoding="utf-8"?>
<!-- Generator: Adobe Illustrator 26.2.1, SVG Export Plug-In . SVG Version: 6.00 Build 0)  -->
<svg version="1.1" id="Layer_1" xmlns="http://www.w3.org/2000/svg" xmlns:xlink="http://www.w3.org/1999/xlink" x="0px" y="0px"
	 viewBox="0 0 9959 3554" style="enable-background:new 0 0 9959 3554;" xml:space="preserve">
<style type="text/css">
	.st0{fill:#01F302;}
	.st1{fill:#F55ED1;}
	.st2{fill:#F45DD0;}
	.st3{fill:#F35CCF;}
	.st4{fill:#00F201;}
</style>
<g>
	<g>
		<path class="st0" d="M225.2,653.8l24.5,91.7l-149,40.9L64.4,653.8l23.6-6.4V264.1l137.2-37.2V653.8z"/>
		<path class="st0" d="M666.6,613.8L702,746.4L242.4,790l-36.3-134.4L603,619.3l-333.4-31.8l10.9-118.1l-10,1.8l-20.9-116.3
			l190.7-26.3l-14.5-81.7l165.3-23.6l35.4,198l-266.1,37.2l317.9,30L666.6,613.8z"/>
		<path class="st0" d="M1083.5,745.5L910,792.7L899.1,751l-129,35.4l-36.3-132.6l23.6-6.4V373.1l137.2-37.2v318.8l41.8-11.8V264.1
			l137.2-37.2v481.4L1083.5,745.5z"/>
		<path class="st0" d="M1253.3,708.3l10,37.2l-173.5,47.2l-35.4-132.6l61.8-17.3V471.2l137.2-37.2V708.3z M1107.1,838.2l134.4-36.3
			l17.3,65.4l-134.4,37.2L1107.1,838.2z"/>
		<path class="st1" d="M1826.5,266.8v182.6l-71.8,20l71.8,20V721l-145.3,84.5l-254.3-69l36.3-132.6l21.8,6.4V344.9h106.3
			l-125.3-34.5l36.3-132.6L1826.5,266.8z M1575.8,634.7l113.5,30.9v-70.8l-67.2-19.1v59H1575.8z M1640.3,437.6l49,13.6v-79
			l-67.2-19.1v150.8L1640.3,437.6z"/>
		<path class="st1" d="M2014.5,649.2l30,8.2L2009,790l-159.9-43.6l28.2-105.4V261.4l137.2-33.6V649.2z"/>
		<path class="st1" d="M2393.3,526.6v120.8l47.2,12.7l-35.4,132.6L2251.6,751l-10.9,41.8l-173.5-47.2l10-37.2V434h71.8l27.2-107.2
			l269.8,70.8l-34.5,133.5L2393.3,526.6z M2256.1,489.4l-41.8-10.9v164.4l41.8,11.8V489.4z"/>
		<path class="st1" d="M2822.9,413.1l-61.8,36.3l-59-13.6l120.8,70.8v228L2685.7,790V584.7l-47.2-27.2v91.7l30,8.2L2633,790
			l-159.9-43.6l28.2-105.4v-377l137.2-55.4v154.4l184.4-109V413.1z"/>
		<path class="st1" d="M3176.2,526.6v120.8l47.2,12.7L3188,792.7L3034.5,751l-10.9,41.8l-173.5-47.2l10-37.2V434h71.8l27.2-107.2
			l269.8,70.8l-34.5,133.5L3176.2,526.6z M3039.1,489.4l-41.8-10.9v164.4l41.8,11.8V489.4z"/>
		<path class="st0" d="M3548.6,653.8l24.5,91.7l-149,40.9l-36.3-132.6l23.6-6.4V264.1l137.2-37.2V653.8z"/>
		<path class="st0" d="M3990,613.8l35.4,132.6L3565.9,790l-36.3-134.4l396.9-36.3l-333.4-31.8l10.9-118.1l-10,1.8l-20.9-116.3
			l190.7-26.3l-14.5-81.7l165.3-23.6l35.4,198l-266.1,37.2l317.9,30L3990,613.8z"/>
		<path class="st0" d="M4407,745.5l-173.5,47.2l-10.9-41.8l-129,35.4l-36.3-132.6l23.6-6.4V373.1l137.2-37.2v318.8l41.8-11.8V264.1
			l137.2-37.2v481.4L4407,745.5z"/>
		<path class="st0" d="M4576.8,708.3l10,37.2l-173.5,47.2l-35.4-132.6l61.8-17.3V471.2l137.2-37.2V708.3z M4430.6,838.2l134.4-36.3
			l17.3,65.4l-134.4,37.2L4430.6,838.2z"/>
		<path class="st2" d="M5149.9,266.8v182.6l-71.8,20l71.8,20V721l-145.3,84.5l-254.3-69l36.3-132.6l21.8,6.4V344.9h106.3
			l-125.3-34.5l36.3-132.6L5149.9,266.8z M4899.2,634.7l113.5,30.9v-70.8l-67.2-19.1v59H4899.2z M4963.7,437.6l49,13.6v-79
			l-67.2-19.1v150.8L4963.7,437.6z"/>
		<path class="st2" d="M5338,649.2l30,8.2L5332.5,790l-159.9-43.6l28.2-105.4V261.4l137.2-33.6V649.2z"/>
		<path class="st2" d="M5716.7,526.6v120.8l47.2,12.7l-35.4,132.6L5575,751l-10.9,41.8l-173.5-47.2l10-37.2V434h71.8l27.2-107.2
			l269.8,70.8l-34.5,133.5L5716.7,526.6z M5579.6,489.4l-41.8-10.9v164.4l41.8,11.8V489.4z"/>
		<path class="st2" d="M6146.3,413.1l-61.8,36.3l-59-13.6l120.8,70.8v228L6009.2,790V584.7l-47.2-27.2v91.7l30,8.2L5956.5,790
			l-159.9-43.6l28.2-105.4v-377l137.2-55.4v154.4l184.4-109V413.1z"/>
		<path class="st2" d="M6499.7,526.6v120.8l47.2,12.7l-35.4,132.6L6358,751l-10.9,41.8l-173.5-47.2l10-37.2V434h71.8l27.2-107.2
			l269.8,70.8l-34.5,133.5L6499.7,526.6z M6362.5,489.4l-41.8-10.9v164.4l41.8,11.8V489.4z"/>
		<path class="st0" d="M6872.1,653.8l24.5,91.7l-149,40.9l-36.3-132.6l23.6-6.4V264.1l137.2-37.2V653.8z"/>
		<path class="st0" d="M7313.5,613.8l35.4,132.6L6889.3,790L6853,655.6l396.9-36.3l-333.4-31.8l10.9-118.1l-10,1.8l-20.9-116.3
			l190.7-26.3l-14.5-81.7l165.3-23.6l35.4,198l-266.1,37.2l317.9,30L7313.5,613.8z"/>
		<path class="st0" d="M7730.4,745.5l-173.5,47.2L7546,751l-129,35.4l-36.3-132.6l23.6-6.4V373.1l137.2-37.2v318.8l41.8-11.8V264.1
			l137.2-37.2v481.4L7730.4,745.5z"/>
		<path class="st0" d="M7900.3,708.3l10,37.2l-173.5,47.2l-35.4-132.6l61.8-17.3V471.2l137.2-37.2V708.3z M7754,838.2l134.4-36.3
			l17.3,65.4l-134.4,37.2L7754,838.2z"/>
		<path class="st3" d="M8473.4,266.8v182.6l-71.8,20l71.8,20V721l-145.3,84.5l-254.3-69l36.3-132.6l21.8,6.4V344.9h106.3
			l-125.3-34.5l36.3-132.6L8473.4,266.8z M8222.7,634.7l113.5,30.9v-70.8l-67.2-19.1v59H8222.7z M8287.2,437.6l49,13.6v-79
			l-67.2-19.1v150.8L8287.2,437.6z"/>
		<path class="st3" d="M8661.4,649.2l30,8.2L8656,790l-159.9-43.6l28.2-105.4V261.4l137.2-33.6V649.2z"/>
		<path class="st3" d="M9040.2,526.6v120.8l47.2,12.7L9052,792.7L8898.5,751l-10.9,41.8l-173.5-47.2l10-37.2V434h71.8l27.2-107.2
			l269.8,70.8l-34.5,133.5L9040.2,526.6z M8903,489.4l-41.8-10.9v164.4l41.8,11.8V489.4z"/>
		<path class="st3" d="M9469.8,413.1l-61.8,36.3l-59-13.6l120.8,70.8v228L9332.6,790V584.7l-47.2-27.2v91.7l30,8.2L9280,790
			l-159.9-43.6l28.2-105.4v-377l137.2-55.4v154.4l184.4-109V413.1z"/>
		<path class="st3" d="M9823.1,526.6v120.8l47.2,12.7l-35.4,132.6L9681.4,751l-10.9,41.8L9497,745.5l10-37.2V434h71.8l27.2-107.2
			l269.8,70.8l-34.5,133.5L9823.1,526.6z M9686,489.4l-41.8-10.9v164.4l41.8,11.8V489.4z"/>
	</g>
	<g>
		<path class="st1" d="M468.6,1095.7v182.6l-71.8,20l71.8,20v231.6l-145.3,84.5l-254.3-69l36.3-132.6l21.8,6.4v-265.2h106.3
			L108,1139.3l36.3-132.6L468.6,1095.7z M217.9,1463.6l113.5,30.9v-70.8l-67.2-19.1v59H217.9z M282.4,1266.5l49,13.6v-79l-67.2-19.1
			v150.8L282.4,1266.5z"/>
		<path class="st1" d="M656.6,1478.1l30,8.2l-35.4,132.6l-159.9-43.6l28.2-105.4v-379.7l137.2-33.6V1478.1z"/>
		<path class="st1" d="M1035.3,1355.5v120.8l47.2,12.7l-35.4,132.6l-153.5-41.8l-10.9,41.8l-173.5-47.2l10-37.2v-274.3H791
			l27.2-107.2l269.8,70.8l-34.5,133.5L1035.3,1355.5z M898.2,1318.2l-41.8-10.9v164.4l41.8,11.8V1318.2z"/>
		<path class="st1" d="M1465,1241.9l-61.8,36.3l-59-13.6l120.8,70.8v228l-137.2,55.4v-205.3l-47.2-27.2v91.7l30,8.2l-35.4,132.6
			l-159.9-43.6l28.2-105.4v-377l137.2-55.4V1192l184.4-109V1241.9z"/>
		<path class="st1" d="M1818.3,1355.5v120.8l47.2,12.7l-35.4,132.6l-153.5-41.8l-10.9,41.8l-173.5-47.2l10-37.2v-274.3h71.8
			l27.2-107.2l269.8,70.8l-34.5,133.5L1818.3,1355.5z M1681.1,1318.2l-41.8-10.9v164.4l41.8,11.8V1318.2z"/>
		<path class="st4" d="M2190.7,1482.6l24.5,91.7l-149,40.9l-36.3-132.6l23.6-6.4V1093l137.2-37.2V1482.6z"/>
		<path class="st4" d="M2632.1,1442.7l35.4,132.6l-459.6,43.6l-36.3-134.4l396.9-36.3l-333.4-31.8l10.9-118.1l-10,1.8l-20.9-116.3
			l190.7-26.3l-14.5-81.7l165.3-23.6l35.4,198l-266.1,37.2l317.9,30L2632.1,1442.7z"/>
		<path class="st4" d="M3049,1574.4l-173.5,47.2l-10.9-41.8l-129,35.4l-36.3-132.6l23.6-6.4V1202l137.2-37.2v318.8l41.8-11.8V1093
			l137.2-37.2v481.4L3049,1574.4z"/>
		<path class="st4" d="M3218.9,1537.1l10,37.2l-173.5,47.2L3020,1489l61.8-17.3v-171.7l137.2-37.2V1537.1z M3072.7,1667l134.4-36.3
			l17.3,65.4l-134.4,37.2L3072.7,1667z"/>
		<path class="st1" d="M3792,1095.7v182.6l-71.8,20l71.8,20v231.6l-145.3,84.5l-254.3-69l36.3-132.6l21.8,6.4v-265.2h106.3
			l-125.3-34.5l36.3-132.6L3792,1095.7z M3541.3,1463.6l113.5,30.9v-70.8l-67.2-19.1v59H3541.3z M3605.8,1266.5l49,13.6v-79
			l-67.2-19.1v150.8L3605.8,1266.5z"/>
		<path class="st1" d="M3980,1478.1l30,8.2l-35.4,132.6l-159.9-43.6l28.2-105.4v-379.7l137.2-33.6V1478.1z"/>
		<path class="st1" d="M4358.8,1355.5v120.8l47.2,12.7l-35.4,132.6l-153.5-41.8l-10.9,41.8l-173.5-47.2l10-37.2v-274.3h71.8
			l27.2-107.2l269.8,70.8L4377,1360L4358.8,1355.5z M4221.6,1318.2l-41.8-10.9v164.4l41.8,11.8V1318.2z"/>
		<path class="st1" d="M4788.4,1241.9l-61.8,36.3l-59-13.6l120.8,70.8v228l-137.2,55.4v-205.3l-47.2-27.2v91.7l30,8.2l-35.4,132.6
			l-159.9-43.6l28.2-105.4v-377l137.2-55.4V1192l184.4-109V1241.9z"/>
		<path class="st1" d="M5141.8,1355.5v120.8l47.2,12.7l-35.4,132.6l-153.5-41.8l-10.9,41.8l-173.5-47.2l10-37.2v-274.3h71.8
			l27.2-107.2l269.8,70.8l-34.5,133.5L5141.8,1355.5z M5004.6,1318.2l-41.8-10.9v164.4l41.8,11.8V1318.2z"/>
		<path class="st4" d="M5514.2,1482.6l24.5,91.7l-149,40.9l-36.3-132.6l23.6-6.4V1093l137.2-37.2V1482.6z"/>
		<path class="st4" d="M5955.6,1442.7l35.4,132.6l-459.6,43.6l-36.3-134.4l396.9-36.3l-333.4-31.8l10.9-118.1l-10,1.8l-20.9-116.3
			l190.7-26.3l-14.5-81.7l165.3-23.6l35.4,198l-266.1,37.2l317.9,30L5955.6,1442.7z"/>
		<path class="st4" d="M6372.5,1574.4l-173.5,47.2l-10.9-41.8l-129,35.4l-36.3-132.6l23.6-6.4V1202l137.2-37.2v318.8l41.8-11.8V1093
			l137.2-37.2v481.4L6372.5,1574.4z"/>
		<path class="st4" d="M6542.4,1537.1l10,37.2l-173.5,47.2l-35.4-132.6l61.8-17.3v-171.7l137.2-37.2V1537.1z M6396.1,1667
			l134.4-36.3l17.3,65.4l-134.4,37.2L6396.1,1667z"/>
		<path class="st1" d="M7115.5,1095.7v182.6l-71.8,20l71.8,20v231.6l-145.3,84.5l-254.3-69l36.3-132.6l21.8,6.4v-265.2h106.3
			l-125.3-34.5l36.3-132.6L7115.5,1095.7z M6864.8,1463.6l113.5,30.9v-70.8l-67.2-19.1v59H6864.8z M6929.3,1266.5l49,13.6v-79
			l-67.2-19.1v150.8L6929.3,1266.5z"/>
		<path class="st1" d="M7303.5,1478.1l30,8.2l-35.4,132.6l-159.9-43.6l28.2-105.4v-379.7l137.2-33.6V1478.1z"/>
		<path class="st1" d="M7682.3,1355.5v120.8l47.2,12.7l-35.4,132.6l-153.5-41.8l-10.9,41.8l-173.5-47.2l10-37.2v-274.3h71.8
			l27.2-107.2l269.8,70.8l-34.5,133.5L7682.3,1355.5z M7545.1,1318.2l-41.8-10.9v164.4l41.8,11.8V1318.2z"/>
		<path class="st1" d="M8111.9,1241.9l-61.8,36.3l-59-13.6l120.8,70.8v228l-137.2,55.4v-205.3l-47.2-27.2v91.7l30,8.2l-35.4,132.6
			l-159.9-43.6l28.2-105.4v-377l137.2-55.4V1192l184.4-109V1241.9z"/>
		<path class="st1" d="M8465.2,1355.5v120.8l47.2,12.7l-35.4,132.6l-153.5-41.8l-10.9,41.8l-173.5-47.2l10-37.2v-274.3h71.8
			l27.2-107.2l269.8,70.8l-34.5,133.5L8465.2,1355.5z M8328.1,1318.2l-41.8-10.9v164.4l41.8,11.8V1318.2z"/>
		<path class="st4" d="M8837.6,1482.6l24.5,91.7l-149,40.9l-36.3-132.6l23.6-6.4V1093l137.2-37.2V1482.6z"/>
		<path class="st4" d="M9279.1,1442.7l35.4,132.6l-459.6,43.6l-36.3-134.4l396.9-36.3l-333.4-31.8l10.9-118.1l-10,1.8l-20.9-116.3
			l190.7-26.3l-14.5-81.7l165.3-23.6l35.4,198l-266.1,37.2l317.9,30L9279.1,1442.7z"/>
		<path class="st4" d="M9696,1574.4l-173.5,47.2l-10.9-41.8l-129,35.4l-36.3-132.6l23.6-6.4V1202l137.2-37.2v318.8l41.8-11.8V1093
			l137.2-37.2v481.4L9696,1574.4z"/>
		<path class="st4" d="M9865.8,1537.1l10,37.2l-173.5,47.2l-35.4-132.6l61.8-17.3v-171.7l137.2-37.2V1537.1z M9719.6,1667
			l134.4-36.3l17.3,65.4l-134.4,37.2L9719.6,1667z"/>
	</g>
	<g>
		<path class="st0" d="M231.4,1882v420.7l24.2,90.4l-146.8,40.3L73,2302.6l23.3-6.3v-377.7L231.4,1882z M139.2,2346.5l4.5,16.1
			l46.5-12.5l-4.5-17l-13.4,3.6v-376.8l-17.9,4.5V2342L139.2,2346.5z"/>
		<path class="st0" d="M678,2139.7l-11.6,123.5l34.9,130.7l-452.9,43l-35.8-132.5l391.1-35.8l-328.5-31.3L286,2121l-9.8,1.8
			l-20.6-114.6l188-26.9l-4.5-26l162-22.4l26,140.5l-262.2,36.7L678,2139.7z M273.5,2358.1l4.5,17.9l363.4-34l-4.5-17.9
			L273.5,2358.1z M569.7,2021.6l-2.7-17.9l-258.7,34.9l2.7,18.8L569.7,2021.6z M324.5,2181.8l301.6,28.6l1.8-17.9l-302.5-27.7
			L324.5,2181.8z"/>
		<path class="st0" d="M1109.4,2359.9l9.8,36.7l-171,46.5l-11.6-44.8L772,2443.2l-34.9-130.7l60.9-17v-269.4l135.2-36.7v313.3
			l0.9,4.5l40.3-11.6v-425.1l135.2-36.7V2359.9z M856.1,2342.9l-71.6,19.7l4.5,17l127.1-33.1l-4.5-18.8l-37.6,10.7V2052l-17.9,4.5
			V2342.9z M1032.5,1900.8v442.2l-71.6,19.7l4.5,17l112.8-29.5l-4.5-17.9l-23.3,6.3v-442.2L1032.5,1900.8z"/>
		<path class="st0" d="M1125.5,2443.2l-34.9-130.7l60.9-17v-172.7l135.2-36.7v273.9l9.8,36.7L1125.5,2443.2z M1250.8,2332.2
			l-23.3,6.3v-189.8l-17.9,4.5v189.8l-71.6,19.7l4.5,17l112.8-29.5L1250.8,2332.2z M1142.5,2484.3l132.5-35.8l17,64.4l-132.5,36.7
			L1142.5,2484.3z M1172.1,2503.1l3.6,15.2l86.8-24.2l-3.6-15.2L1172.1,2503.1z"/>
		<path class="st1" d="M1531.9,1833.6l319.5,87.7v179.9l-70.7,19.7l70.7,19.7v228.2l-143.2,83.2l-250.6-68l35.8-130.7l21.5,5.4
			v-260.5h106.5l-125.3-34L1531.9,1833.6z M1573.9,2338.4l-54.6-15.2l-4.5,17.9l195.1,52.8l22.4-12.5l-140.5-38.5v-311.5h-17.9
			V2338.4z M1793.2,1985.8l13.4,3.6l4.5-17l-253.3-69.8l-4.5,17l222,60.9v88.6l17.9-5.4V1985.8z M1650,2225.7v58.2h-45.6l111.9,30.4
			v-70.7L1650,2225.7z M1650,2155.9l17.9-66.2l48.3,13.4v-78.8l-66.2-17.9V2155.9z M1793.2,2205.1l13.4,3.6l4.5-17l-119-33.1
			l-4.5,17l87.7,24.2v156.6l17.9-10.7V2205.1z"/>
		<path class="st1" d="M2036.7,1847.1v451.1l29.5,8.1l-34.9,130.7l-157.5-43l27.7-103.8v-409.9L2036.7,1847.1z M1977.6,1906.1
			l-17.9,4.5v428.7l-25.1-8.1l-4.5,18.8l73.4,19.7l5.4-17.9l-31.3-9V1906.1z"/>
		<path class="st1" d="M2427.8,2181.8l-17.9-4.5v119l46.5,12.5l-34.9,130.7l-151.3-41.2l-10.7,41.2l-171-46.5l9.8-36.7V2086h70.7
			l26.9-105.6l265.8,69.8L2427.8,2181.8z M2175.4,2118.3h-17.9v220.2l-8.1-2.7l-5.4,18.8l87.7,22.4l4.5-17l-60.9-17V2118.3z
			 M2333.8,2338.4l-21.5-6.3l-4.5,18.8l86.8,22.4l4.5-17l-47.4-13.4v-236.3l46.5,13.4l4.5-17l-179.9-50.1l-4.5,16.1l115.5,32.2
			V2338.4z M2274.7,2140.6l-41.2-10.7v162l41.2,11.6V2140.6z"/>
		<path class="st1" d="M2833.2,1908.8v156.6l-60.9,35.8l-57.3-12.5l118.1,68.9v224.7l-135.2,54.6v-202.3l-46.5-26.9v90.4l29.5,8.1
			l-34.9,130.7l-157.5-43l27.7-103.8v-371.4l135.2-54.6v152.2L2833.2,1908.8z M2593.4,1933.9l-17.9,7.2v398.3l-26-7.2l-4.5,17.9
			l73.4,19.7l4.5-17.9l-29.5-8.1V1933.9z M2775.1,2359.9v-168.3l-115.5-68l-9,15.2l106.5,62.7v165.6L2775.1,2359.9z M2793,2001
			l-77,44.8l26,5.4l51-29.5V2001z"/>
		<path class="st1" d="M3199.3,2181.8l-17.9-4.5v119l46.5,12.5l-34.9,130.7l-151.3-41.2l-10.7,41.2l-171-46.5l9.8-36.7V2086h70.7
			l26.9-105.6l265.8,69.8L3199.3,2181.8z M2946.9,2118.3H2929v220.2l-8.1-2.7l-5.4,18.8l87.7,22.4l4.5-17l-60.9-17V2118.3z
			 M3105.3,2338.4l-21.5-6.3l-4.5,18.8l86.8,22.4l4.5-17l-47.4-13.4v-236.3l46.5,13.4l4.5-17l-179.9-50.1l-4.5,16.1l115.5,32.2
			V2338.4z M3046.3,2140.6l-41.2-10.7v162l41.2,11.6V2140.6z"/>
		<path class="st0" d="M3548.4,1882v420.7l24.2,90.4l-146.8,40.3l-35.8-130.7l23.3-6.3v-377.7L3548.4,1882z M3456.2,2346.5l4.5,16.1
			l46.5-12.5l-4.5-17l-13.4,3.6v-376.8l-17.9,4.5V2342L3456.2,2346.5z"/>
		<path class="st0" d="M3995,2139.7l-11.6,123.5l34.9,130.7l-452.9,43l-35.8-132.5l391.1-35.8l-328.5-31.3L3603,2121l-9.8,1.8
			l-20.6-114.6l188-26.9l-4.5-26l162-22.4l26,140.5l-262.2,36.7L3995,2139.7z M3590.4,2358.1l4.5,17.9l363.4-34l-4.5-17.9
			L3590.4,2358.1z M3886.7,2021.6l-2.7-17.9l-258.7,34.9l2.7,18.8L3886.7,2021.6z M3641.5,2181.8l301.6,28.6l1.8-17.9l-302.5-27.7
			L3641.5,2181.8z"/>
		<path class="st0" d="M4426.4,2359.9l9.8,36.7l-171,46.5l-11.6-44.8l-164.7,44.8l-34.9-130.7l60.9-17v-269.4l135.2-36.7v313.3
			l0.9,4.5l40.3-11.6v-425.1l135.2-36.7V2359.9z M4173.1,2342.9l-71.6,19.7l4.5,17l127.1-33.1l-4.5-18.8l-37.6,10.7V2052l-17.9,4.5
			V2342.9z M4349.4,1900.8v442.2l-71.6,19.7l4.5,17l112.8-29.5l-4.5-17.9l-23.3,6.3v-442.2L4349.4,1900.8z"/>
		<path class="st0" d="M4442.5,2443.2l-34.9-130.7l60.9-17v-172.7l135.2-36.7v273.9l9.8,36.7L4442.5,2443.2z M4567.8,2332.2
			l-23.3,6.3v-189.8l-17.9,4.5v189.8l-71.6,19.7l4.5,17l112.8-29.5L4567.8,2332.2z M4459.5,2484.3l132.5-35.8l17,64.4l-132.5,36.7
			L4459.5,2484.3z M4489.1,2503.1l3.6,15.2l86.8-24.2l-3.6-15.2L4489.1,2503.1z"/>
		<path class="st2" d="M4848.9,1833.6l319.5,87.7v179.9l-70.7,19.7l70.7,19.7v228.2l-143.2,83.2l-250.6-68l35.8-130.7l21.5,5.4
			v-260.5h106.5l-125.3-34L4848.9,1833.6z M4890.9,2338.4l-54.6-15.2l-4.5,17.9l195.1,52.8l22.4-12.5l-140.5-38.5v-311.5h-17.9
			V2338.4z M5110.2,1985.8l13.4,3.6l4.5-17l-253.3-69.8l-4.5,17l222,60.9v88.6l17.9-5.4V1985.8z M4967,2225.7v58.2h-45.6l111.9,30.4
			v-70.7L4967,2225.7z M4967,2155.9l17.9-66.2l48.3,13.4v-78.8l-66.2-17.9V2155.9z M5110.2,2205.1l13.4,3.6l4.5-17l-119-33.1
			l-4.5,17l87.7,24.2v156.6l17.9-10.7V2205.1z"/>
		<path class="st2" d="M5353.7,1847.1v451.1l29.5,8.1l-34.9,130.7l-157.5-43l27.7-103.8v-409.9L5353.7,1847.1z M5294.6,1906.1
			l-17.9,4.5v428.7l-25.1-8.1l-4.5,18.8l73.4,19.7l5.4-17.9l-31.3-9V1906.1z"/>
		<path class="st2" d="M5744.8,2181.8l-17.9-4.5v119l46.5,12.5l-34.9,130.7l-151.3-41.2l-10.7,41.2l-171-46.5l9.8-36.7V2086h70.7
			l26.9-105.6l265.8,69.8L5744.8,2181.8z M5492.4,2118.3h-17.9v220.2l-8.1-2.7l-5.4,18.8l87.7,22.4l4.5-17l-60.9-17V2118.3z
			 M5650.8,2338.4l-21.5-6.3l-4.5,18.8l86.8,22.4l4.5-17l-47.4-13.4v-236.3l46.5,13.4l4.5-17l-179.9-50.1l-4.5,16.1l115.5,32.2
			V2338.4z M5591.7,2140.6l-41.2-10.7v162l41.2,11.6V2140.6z"/>
		<path class="st2" d="M6150.2,1908.8v156.6l-60.9,35.8l-57.3-12.5l118.1,68.9v224.7l-135.2,54.6v-202.3l-46.5-26.9v90.4l29.5,8.1
			l-34.9,130.7l-157.5-43l27.7-103.8v-371.4l135.2-54.6v152.2L6150.2,1908.8z M5910.4,1933.9l-17.9,7.2v398.3l-26-7.2l-4.5,17.9
			l73.4,19.7l4.5-17.9l-29.5-8.1V1933.9z M6092,2359.9v-168.3l-115.5-68l-9,15.2l106.5,62.7v165.6L6092,2359.9z M6109.9,2001
			l-77,44.8l26,5.4l51-29.5V2001z"/>
		<path class="st2" d="M6516.3,2181.8l-17.9-4.5v119l46.5,12.5l-34.9,130.7l-151.3-41.2l-10.7,41.2l-171-46.5l9.8-36.7V2086h70.7
			l26.9-105.6l265.8,69.8L6516.3,2181.8z M6263.9,2118.3H6246v220.2l-8.1-2.7l-5.4,18.8l87.7,22.4l4.5-17l-60.9-17V2118.3z
			 M6422.3,2338.4l-21.5-6.3l-4.5,18.8l86.8,22.4l4.5-17l-47.4-13.4v-236.3l46.5,13.4l4.5-17l-179.9-50.1l-4.5,16.1l115.5,32.2
			V2338.4z M6363.2,2140.6l-41.2-10.7v162l41.2,11.6V2140.6z"/>
		<path class="st0" d="M6865.3,1882v420.7l24.2,90.4l-146.8,40.3l-35.8-130.7l23.3-6.3v-377.7L6865.3,1882z M6773.2,2346.5l4.5,16.1
			l46.5-12.5l-4.5-17l-13.4,3.6v-376.8l-17.9,4.5V2342L6773.2,2346.5z"/>
		<path class="st0" d="M7312,2139.7l-11.6,123.5l34.9,130.7l-452.9,43l-35.8-132.5l391.1-35.8l-328.5-31.3l10.7-116.4l-9.8,1.8
			l-20.6-114.6l188-26.9l-4.5-26l162-22.4l26,140.5l-262.2,36.7L7312,2139.7z M6907.4,2358.1l4.5,17.9l363.4-34l-4.5-17.9
			L6907.4,2358.1z M7203.7,2021.6l-2.7-17.9l-258.7,34.9l2.7,18.8L7203.7,2021.6z M6958.4,2181.8l301.6,28.6l1.8-17.9l-302.5-27.7
			L6958.4,2181.8z"/>
		<path class="st0" d="M7743.4,2359.9l9.8,36.7l-171,46.5l-11.6-44.8l-164.7,44.8l-34.9-130.7l60.9-17v-269.4l135.2-36.7v313.3
			l0.9,4.5l40.3-11.6v-425.1l135.2-36.7V2359.9z M7490.1,2342.9l-71.6,19.7l4.5,17l127.1-33.1l-4.5-18.8l-37.6,10.7V2052l-17.9,4.5
			V2342.9z M7666.4,1900.8v442.2l-71.6,19.7l4.5,17l112.8-29.5l-4.5-17.9l-23.3,6.3v-442.2L7666.4,1900.8z"/>
		<path class="st0" d="M7759.5,2443.2l-34.9-130.7l60.9-17v-172.7l135.2-36.7v273.9l9.8,36.7L7759.5,2443.2z M7884.8,2332.2
			l-23.3,6.3v-189.8l-17.9,4.5v189.8l-71.6,19.7l4.5,17l112.8-29.5L7884.8,2332.2z M7776.5,2484.3l132.5-35.8l17,64.4l-132.5,36.7
			L7776.5,2484.3z M7806,2503.1l3.6,15.2l86.8-24.2l-3.6-15.2L7806,2503.1z"/>
		<path class="st3" d="M8165.8,1833.6l319.5,87.7v179.9l-70.7,19.7l70.7,19.7v228.2l-143.2,83.2l-250.6-68l35.8-130.7l21.5,5.4
			v-260.5h106.5l-125.3-34L8165.8,1833.6z M8207.9,2338.4l-54.6-15.2l-4.5,17.9l195.1,52.8l22.4-12.5l-140.5-38.5v-311.5h-17.9
			V2338.4z M8427.2,1985.8l13.4,3.6l4.5-17l-253.3-69.8l-4.5,17l222,60.9v88.6l17.9-5.4V1985.8z M8284,2225.7v58.2h-45.6l111.9,30.4
			v-70.7L8284,2225.7z M8284,2155.9l17.9-66.2l48.3,13.4v-78.8l-66.2-17.9V2155.9z M8427.2,2205.1l13.4,3.6l4.5-17l-119-33.1
			l-4.5,17l87.7,24.2v156.6l17.9-10.7V2205.1z"/>
		<path class="st3" d="M8670.6,1847.1v451.1l29.5,8.1l-34.9,130.7l-157.5-43l27.7-103.8v-409.9L8670.6,1847.1z M8611.6,1906.1
			l-17.9,4.5v428.7l-25.1-8.1l-4.5,18.8l73.4,19.7l5.4-17.9l-31.3-9V1906.1z"/>
		<path class="st3" d="M9061.7,2181.8l-17.9-4.5v119l46.5,12.5l-34.9,130.7l-151.3-41.2l-10.7,41.2l-171-46.5l9.8-36.7V2086h70.7
			l26.9-105.6l265.8,69.8L9061.7,2181.8z M8809.3,2118.3h-17.9v220.2l-8.1-2.7l-5.4,18.8l87.7,22.4l4.5-17l-60.9-17V2118.3z
			 M8967.8,2338.4l-21.5-6.3l-4.5,18.8l86.8,22.4l4.5-17l-47.4-13.4v-236.3l46.5,13.4l4.5-17l-179.9-50.1l-4.5,16.1l115.5,32.2
			V2338.4z M8908.7,2140.6l-41.2-10.7v162l41.2,11.6V2140.6z"/>
		<path class="st3" d="M9467.2,1908.8v156.6l-60.9,35.8l-57.3-12.5l118.1,68.9v224.7l-135.2,54.6v-202.3l-46.5-26.9v90.4l29.5,8.1
			l-34.9,130.7l-157.5-43l27.7-103.8v-371.4l135.2-54.6v152.2L9467.2,1908.8z M9227.3,1933.9l-17.9,7.2v398.3l-26-7.2l-4.5,17.9
			l73.4,19.7l4.5-17.9l-29.5-8.1V1933.9z M9409,2359.9v-168.3l-115.5-68l-9,15.2l106.5,62.7v165.6L9409,2359.9z M9426.9,2001
			l-77,44.8l26,5.4l51-29.5V2001z"/>
		<path class="st3" d="M9833.3,2181.8l-17.9-4.5v119l46.5,12.5l-34.9,130.7l-151.3-41.2l-10.7,41.2l-171-46.5l9.8-36.7V2086h70.7
			l26.9-105.6l265.8,69.8L9833.3,2181.8z M9580.9,2118.3H9563v220.2l-8.1-2.7l-5.4,18.8l87.7,22.4l4.5-17l-60.9-17V2118.3z
			 M9739.3,2338.4l-21.5-6.3l-4.5,18.8l86.8,22.4l4.5-17l-47.4-13.4v-236.3l46.5,13.4l4.5-17l-179.9-50.1l-4.5,16.1l115.5,32.2
			V2338.4z M9680.2,2140.6l-41.2-10.7v162l41.2,11.6V2140.6z"/>
	</g>
	<g>
		<path class="st1" d="M151.7,2650.4l319.5,87.7V2918l-70.7,19.7l70.7,19.7v228.2l-143.2,83.2l-250.6-68l35.8-130.7l21.5,5.4v-260.5
			h106.5l-125.3-34L151.7,2650.4z M193.8,3155.2l-54.6-15.2l-4.5,17.9l195.1,52.8l22.4-12.5l-140.5-38.5v-311.5h-17.9V3155.2z
			 M413.1,2802.6l13.4,3.6l4.5-17l-253.3-69.8l-4.5,17l222,60.9v88.6l17.9-5.4V2802.6z M269.9,3042.4v58.2h-45.6l111.9,30.4v-70.7
			L269.9,3042.4z M269.9,2972.6l17.9-66.2l48.3,13.4v-78.8l-66.2-17.9V2972.6z M413.1,3021.9l13.4,3.6l4.5-17l-119-33.1l-4.5,17
			l87.7,24.2v156.6l17.9-10.7V3021.9z"/>
		<path class="st1" d="M656.5,2663.8v451.1l29.5,8.1l-34.9,130.7l-157.5-43l27.7-103.8v-409.9L656.5,2663.8z M597.5,2722.9
			l-17.9,4.5v428.7l-25.1-8.1l-4.5,18.8l73.4,19.7l5.4-17.9l-31.3-9V2722.9z"/>
		<path class="st1" d="M1047.7,2998.6l-17.9-4.5v119l46.5,12.5l-34.9,130.7l-151.3-41.2l-10.7,41.2l-171-46.5l9.8-36.7v-270.3H789
			l26.9-105.6l265.8,69.8L1047.7,2998.6z M795.3,2935h-17.9v220.2l-8.1-2.7l-5.4,18.8l87.7,22.4l4.5-17l-60.9-17V2935z
			 M953.7,3155.2l-21.5-6.3l-4.5,18.8l86.8,22.4l4.5-17l-47.4-13.4v-236.3l46.5,13.4l4.5-17l-179.9-50.1l-4.5,16.1l115.5,32.2
			V3155.2z M894.6,2957.4l-41.2-10.7v162l41.2,11.6V2957.4z"/>
		<path class="st1" d="M1453.1,2725.6v156.6l-60.9,35.8l-57.3-12.5l118.1,68.9v224.7l-135.2,54.6v-202.3l-46.5-26.9v90.4l29.5,8.1
			l-34.9,130.7l-157.5-43l27.7-103.8v-371.4l135.2-54.6V2833L1453.1,2725.6z M1213.2,2750.7l-17.9,7.2v398.3l-26-7.2l-4.5,17.9
			l73.4,19.7l4.5-17.9l-29.5-8.1V2750.7z M1394.9,3176.7v-168.3l-115.5-68l-9,15.2l106.5,62.7v165.6L1394.9,3176.7z M1412.8,2817.8
			l-77,44.8l26,5.4l51-29.5V2817.8z"/>
		<path class="st1" d="M1819.2,2998.6l-17.9-4.5v119l46.5,12.5l-34.9,130.7l-151.3-41.2l-10.7,41.2l-171-46.5l9.8-36.7v-270.3h70.7
			l26.9-105.6l265.8,69.8L1819.2,2998.6z M1566.8,2935h-17.9v220.2l-8.1-2.7l-5.4,18.8l87.7,22.4l4.5-17l-60.9-17V2935z
			 M1725.2,3155.2l-21.5-6.3l-4.5,18.8l86.8,22.4l4.5-17l-47.4-13.4v-236.3l46.5,13.4l4.5-17l-179.9-50.1l-4.5,16.1l115.5,32.2
			V3155.2z M1666.1,2957.4l-41.2-10.7v162l41.2,11.6V2957.4z"/>
		<path class="st4" d="M2168.2,2698.7v420.7l24.2,90.4l-146.8,40.3l-35.8-130.7l23.3-6.3v-377.7L2168.2,2698.7z M2076,3163.3
			l4.5,16.1l46.5-12.5l-4.5-17l-13.4,3.6v-376.8l-17.9,4.5v377.7L2076,3163.3z"/>
		<path class="st4" d="M2614.9,2956.5l-11.6,123.5l34.9,130.7l-452.9,43l-35.8-132.5l391.1-35.8l-328.5-31.3l10.7-116.4l-9.8,1.8
			l-20.6-114.6l188-26.9l-4.5-26l162-22.4l26,140.5l-262.2,36.7L2614.9,2956.5z M2210.3,3174.9l4.5,17.9l363.4-34l-4.5-17.9
			L2210.3,3174.9z M2506.6,2838.4l-2.7-17.9l-258.7,34.9l2.7,18.8L2506.6,2838.4z M2261.3,2998.6l301.6,28.6l1.8-17.9l-302.5-27.7
			L2261.3,2998.6z"/>
		<path class="st4" d="M3046.3,3176.7l9.8,36.7l-171,46.5l-11.6-44.8l-164.7,44.8l-34.9-130.7l60.9-17v-269.4l135.2-36.7v313.3
			l0.9,4.5l40.3-11.6v-425.1l135.2-36.7V3176.7z M2793,3159.7l-71.6,19.7l4.5,17l127.1-33.1l-4.5-18.8l-37.6,10.7v-286.4l-17.9,4.5
			V3159.7z M2969.3,2717.5v442.2l-71.6,19.7l4.5,17l112.8-29.5l-4.5-17.9l-23.3,6.3v-442.2L2969.3,2717.5z"/>
		<path class="st4" d="M3062.4,3259.9l-34.9-130.7l60.9-17v-172.7l135.2-36.7v273.9l9.8,36.7L3062.4,3259.9z M3187.7,3148.9
			l-23.3,6.3v-189.8l-17.9,4.5v189.8l-71.6,19.7l4.5,17l112.8-29.5L3187.7,3148.9z M3079.4,3301.1l132.5-35.8l17,64.4l-132.5,36.7
			L3079.4,3301.1z M3108.9,3319.9l3.6,15.2l86.8-24.2l-3.6-15.2L3108.9,3319.9z"/>
		<path class="st1" d="M3468.7,2650.4l319.5,87.7V2918l-70.7,19.7l70.7,19.7v228.2l-143.2,83.2l-250.6-68l35.8-130.7l21.5,5.4
			v-260.5h106.5l-125.3-34L3468.7,2650.4z M3510.8,3155.2l-54.6-15.2l-4.5,17.9l195.1,52.8l22.4-12.5l-140.5-38.5v-311.5h-17.9
			V3155.2z M3730.1,2802.6l13.4,3.6l4.5-17l-253.3-69.8l-4.5,17l222,60.9v88.6l17.9-5.4V2802.6z M3586.9,3042.4v58.2h-45.6
			l111.9,30.4v-70.7L3586.9,3042.4z M3586.9,2972.6l17.9-66.2l48.3,13.4v-78.8l-66.2-17.9V2972.6z M3730.1,3021.9l13.4,3.6l4.5-17
			l-119-33.1l-4.5,17l87.7,24.2v156.6l17.9-10.7V3021.9z"/>
		<path class="st1" d="M3973.5,2663.8v451.1l29.5,8.1l-34.9,130.7l-157.5-43l27.7-103.8v-409.9L3973.5,2663.8z M3914.4,2722.9
			l-17.9,4.5v428.7l-25.1-8.1l-4.5,18.8l73.4,19.7l5.4-17.9l-31.3-9V2722.9z"/>
		<path class="st1" d="M4364.6,2998.6l-17.9-4.5v119l46.5,12.5l-34.9,130.7l-151.3-41.2l-10.7,41.2l-171-46.5l9.8-36.7v-270.3h70.7
			l26.9-105.6l265.8,69.8L4364.6,2998.6z M4112.2,2935h-17.9v220.2l-8.1-2.7l-5.4,18.8l87.7,22.4l4.5-17l-60.9-17V2935z
			 M4270.6,3155.2l-21.5-6.3l-4.5,18.8l86.8,22.4l4.5-17l-47.4-13.4v-236.3l46.5,13.4l4.5-17l-179.9-50.1l-4.5,16.1l115.5,32.2
			V3155.2z M4211.6,2957.4l-41.2-10.7v162l41.2,11.6V2957.4z"/>
		<path class="st1" d="M4770.1,2725.6v156.6l-60.9,35.8l-57.3-12.5l118.1,68.9v224.7l-135.2,54.6v-202.3l-46.5-26.9v90.4l29.5,8.1
			l-34.9,130.7l-157.5-43l27.7-103.8v-371.4l135.2-54.6V2833L4770.1,2725.6z M4530.2,2750.7l-17.9,7.2v398.3l-26-7.2l-4.5,17.9
			l73.4,19.7l4.5-17.9l-29.5-8.1V2750.7z M4711.9,3176.7v-168.3l-115.5-68l-9,15.2l106.5,62.7v165.6L4711.9,3176.7z M4729.8,2817.8
			l-77,44.8l26,5.4l51-29.5V2817.8z"/>
		<path class="st1" d="M5136.1,2998.6l-17.9-4.5v119l46.5,12.5l-34.9,130.7l-151.3-41.2l-10.7,41.2l-171-46.5l9.8-36.7v-270.3h70.7
			l26.9-105.6l265.8,69.8L5136.1,2998.6z M4883.7,2935h-17.9v220.2l-8.1-2.7l-5.4,18.8l87.7,22.4l4.5-17l-60.9-17V2935z
			 M5042.2,3155.2l-21.5-6.3l-4.5,18.8l86.8,22.4l4.5-17l-47.4-13.4v-236.3l46.5,13.4l4.5-17l-179.9-50.1l-4.5,16.1l115.5,32.2
			V3155.2z M4983.1,2957.4l-41.2-10.7v162l41.2,11.6V2957.4z"/>
		<path class="st4" d="M5485.2,2698.7v420.7l24.2,90.4l-146.8,40.3l-35.8-130.7l23.3-6.3v-377.7L5485.2,2698.7z M5393,3163.3
			l4.5,16.1l46.5-12.5l-4.5-17l-13.4,3.6v-376.8l-17.9,4.5v377.7L5393,3163.3z"/>
		<path class="st4" d="M5931.8,2956.5l-11.6,123.5l34.9,130.7l-452.9,43l-35.8-132.5l391.1-35.8l-328.5-31.3l10.7-116.4l-9.8,1.8
			l-20.6-114.6l188-26.9l-4.5-26l162-22.4l26,140.5l-262.2,36.7L5931.8,2956.5z M5527.3,3174.9l4.5,17.9l363.4-34l-4.5-17.9
			L5527.3,3174.9z M5823.5,2838.4l-2.7-17.9l-258.7,34.9l2.7,18.8L5823.5,2838.4z M5578.3,2998.6l301.6,28.6l1.8-17.9l-302.5-27.7
			L5578.3,2998.6z"/>
		<path class="st4" d="M6363.2,3176.7l9.8,36.7l-171,46.5l-11.6-44.8l-164.7,44.8l-34.9-130.7l60.9-17v-269.4l135.2-36.7v313.3
			l0.9,4.5l40.3-11.6v-425.1l135.2-36.7V3176.7z M6109.9,3159.7l-71.6,19.7l4.5,17l127.1-33.1l-4.5-18.8l-37.6,10.7v-286.4
			l-17.9,4.5V3159.7z M6286.3,2717.5v442.2l-71.6,19.7l4.5,17l112.8-29.5l-4.5-17.9l-23.3,6.3v-442.2L6286.3,2717.5z"/>
		<path class="st4" d="M6379.3,3259.9l-34.9-130.7l60.9-17v-172.7l135.2-36.7v273.9l9.8,36.7L6379.3,3259.9z M6504.6,3148.9
			l-23.3,6.3v-189.8l-17.9,4.5v189.8l-71.6,19.7l4.5,17l112.8-29.5L6504.6,3148.9z M6396.3,3301.1l132.5-35.8l17,64.4l-132.5,36.7
			L6396.3,3301.1z M6425.9,3319.9l3.6,15.2l86.8-24.2l-3.6-15.2L6425.9,3319.9z"/>
		<path class="st1" d="M6785.7,2650.4l319.5,87.7V2918l-70.7,19.7l70.7,19.7v228.2l-143.2,83.2l-250.6-68l35.8-130.7l21.5,5.4
			v-260.5h106.5l-125.3-34L6785.7,2650.4z M6827.8,3155.2l-54.6-15.2l-4.5,17.9l195.1,52.8l22.4-12.5l-140.5-38.5v-311.5h-17.9
			V3155.2z M7047,2802.6l13.4,3.6l4.5-17l-253.3-69.8l-4.5,17l222,60.9v88.6l17.9-5.4V2802.6z M6903.8,3042.4v58.2h-45.6l111.9,30.4
			v-70.7L6903.8,3042.4z M6903.8,2972.6l17.9-66.2l48.3,13.4v-78.8l-66.2-17.9V2972.6z M7047,3021.9l13.4,3.6l4.5-17l-119-33.1
			l-4.5,17l87.7,24.2v156.6l17.9-10.7V3021.9z"/>
		<path class="st1" d="M7290.5,2663.8v451.1l29.5,8.1l-34.9,130.7l-157.5-43l27.7-103.8v-409.9L7290.5,2663.8z M7231.4,2722.9
			l-17.9,4.5v428.7l-25.1-8.1l-4.5,18.8l73.4,19.7l5.4-17.9l-31.3-9V2722.9z"/>
		<path class="st1" d="M7681.6,2998.6l-17.9-4.5v119l46.5,12.5l-34.9,130.7l-151.3-41.2l-10.7,41.2l-171-46.5l9.8-36.7v-270.3h70.7
			l26.9-105.6l265.8,69.8L7681.6,2998.6z M7429.2,2935h-17.9v220.2l-8.1-2.7l-5.4,18.8l87.7,22.4l4.5-17l-60.9-17V2935z
			 M7587.6,3155.2l-21.5-6.3l-4.5,18.8l86.8,22.4l4.5-17l-47.4-13.4v-236.3l46.5,13.4l4.5-17l-179.9-50.1l-4.5,16.1l115.5,32.2
			V3155.2z M7528.6,2957.4l-41.2-10.7v162l41.2,11.6V2957.4z"/>
		<path class="st1" d="M8087.1,2725.6v156.6l-60.9,35.8l-57.3-12.5l118.1,68.9v224.7l-135.2,54.6v-202.3l-46.5-26.9v90.4l29.5,8.1
			l-34.9,130.7l-157.5-43l27.7-103.8v-371.4l135.2-54.6V2833L8087.1,2725.6z M7847.2,2750.7l-17.9,7.2v398.3l-26-7.2l-4.5,17.9
			l73.4,19.7l4.5-17.9l-29.5-8.1V2750.7z M8028.9,3176.7v-168.3l-115.5-68l-9,15.2l106.5,62.7v165.6L8028.9,3176.7z M8046.8,2817.8
			l-77,44.8l26,5.4l51-29.5V2817.8z"/>
		<path class="st1" d="M8453.1,2998.6l-17.9-4.5v119l46.5,12.5l-34.9,130.7l-151.3-41.2l-10.7,41.2l-171-46.5l9.8-36.7v-270.3h70.7
			l26.9-105.6l265.8,69.8L8453.1,2998.6z M8200.7,2935h-17.9v220.2l-8.1-2.7l-5.4,18.8l87.7,22.4l4.5-17l-60.9-17V2935z
			 M8359.1,3155.2l-21.5-6.3l-4.5,18.8l86.8,22.4l4.5-17l-47.4-13.4v-236.3l46.5,13.4l4.5-17l-179.9-50.1l-4.5,16.1l115.5,32.2
			V3155.2z M8300.1,2957.4l-41.2-10.7v162l41.2,11.6V2957.4z"/>
		<path class="st4" d="M8802.2,2698.7v420.7l24.2,90.4l-146.8,40.3l-35.8-130.7l23.3-6.3v-377.7L8802.2,2698.7z M8710,3163.3
			l4.5,16.1l46.5-12.5l-4.5-17l-13.4,3.6v-376.8l-17.9,4.5v377.7L8710,3163.3z"/>
		<path class="st4" d="M9248.8,2956.5l-11.6,123.5l34.9,130.7l-452.9,43l-35.8-132.5l391.1-35.8l-328.5-31.3l10.7-116.4l-9.8,1.8
			l-20.6-114.6l188-26.9l-4.5-26l162-22.4l26,140.5l-262.2,36.7L9248.8,2956.5z M8844.2,3174.9l4.5,17.9l363.4-34l-4.5-17.9
			L8844.2,3174.9z M9140.5,2838.4l-2.7-17.9l-258.7,34.9l2.7,18.8L9140.5,2838.4z M8895.3,2998.6l301.6,28.6l1.8-17.9l-302.5-27.7
			L8895.3,2998.6z"/>
		<path class="st4" d="M9680.2,3176.7l9.8,36.7l-171,46.5l-11.6-44.8l-164.7,44.8l-34.9-130.7l60.9-17v-269.4l135.2-36.7v313.3
			l0.9,4.5l40.3-11.6v-425.1l135.2-36.7V3176.7z M9426.9,3159.7l-71.6,19.7l4.5,17l127.1-33.1l-4.5-18.8l-37.6,10.7v-286.4
			l-17.9,4.5V3159.7z M9603.2,2717.5v442.2l-71.6,19.7l4.5,17l112.8-29.5l-4.5-17.9l-23.3,6.3v-442.2L9603.2,2717.5z"/>
		<path class="st4" d="M9696.3,3259.9l-34.9-130.7l60.9-17v-172.7l135.2-36.7v273.9l9.8,36.7L9696.3,3259.9z M9821.6,3148.9
			l-23.3,6.3v-189.8l-17.9,4.5v189.8l-71.6,19.7l4.5,17l112.8-29.5L9821.6,3148.9z M9713.3,3301.1l132.5-35.8l17,64.4l-132.5,36.7
			L9713.3,3301.1z M9742.9,3319.9l3.6,15.2l86.8-24.2l-3.6-15.2L9742.9,3319.9z"/>
	</g>
</g>
</svg>
